<mxfile host="app.diagrams.net" modified="2022-11-30T12:45:07.730Z" agent="5.0 (Macintosh)" etag="84W_xiHE27VnEKJDOWfR" version="20.6.0" type="github">
  <diagram id="zNRqwmhwt8EUDC5XJ66e" name="Page-1">
    <mxGraphModel dx="1422" dy="1144" grid="1" gridSize="10" guides="1" tooltips="1" connect="1" arrows="1" fold="1" page="1" pageScale="1" pageWidth="850" pageHeight="1100" math="0" shadow="0">
      <root>
        <mxCell id="0" />
        <mxCell id="1" parent="0" />
        <mxCell id="5-WwUPLBj0hoFkO52xAp-3" value="House&#39;s image + sensor&#39;s links" style="rounded=0;whiteSpace=wrap;html=1;fontSize=19;" parent="1" vertex="1">
          <mxGeometry x="50" y="291" width="210" height="60" as="geometry" />
        </mxCell>
        <mxCell id="5-WwUPLBj0hoFkO52xAp-4" value="Data from all sensors" style="rounded=0;whiteSpace=wrap;html=1;fontSize=19;" parent="1" vertex="1">
          <mxGeometry x="290" y="291" width="230" height="60" as="geometry" />
        </mxCell>
        <mxCell id="5-WwUPLBj0hoFkO52xAp-5" value="Alarm from all sensors" style="rounded=0;whiteSpace=wrap;html=1;fontSize=19;" parent="1" vertex="1">
          <mxGeometry x="550" y="291" width="120" height="60" as="geometry" />
        </mxCell>
        <mxCell id="5-WwUPLBj0hoFkO52xAp-9" style="edgeStyle=orthogonalEdgeStyle;rounded=0;orthogonalLoop=1;jettySize=auto;html=1;exitX=0.5;exitY=1;exitDx=0;exitDy=0;fontSize=19;" parent="1" source="5-WwUPLBj0hoFkO52xAp-6" edge="1">
          <mxGeometry relative="1" as="geometry">
            <mxPoint x="260" y="200" as="targetPoint" />
          </mxGeometry>
        </mxCell>
        <mxCell id="5-WwUPLBj0hoFkO52xAp-6" value="&lt;div&gt;Company&#39;s info: our logo, name of project&lt;/div&gt;&lt;div&gt;link to our site,&lt;/div&gt;&lt;div&gt;&lt;br&gt;&lt;/div&gt;" style="rounded=0;whiteSpace=wrap;html=1;fontSize=19;" parent="1" vertex="1">
          <mxGeometry x="100" y="144" width="300" height="100" as="geometry" />
        </mxCell>
        <mxCell id="5-WwUPLBj0hoFkO52xAp-7" value="&lt;div&gt;Menu: states of the dashboard&lt;/div&gt;&lt;div&gt;hover: active&lt;/div&gt;&lt;div&gt;icons&lt;br&gt;&lt;/div&gt;" style="rounded=0;whiteSpace=wrap;html=1;fontSize=19;" parent="1" vertex="1">
          <mxGeometry x="460" y="144" width="290" height="100" as="geometry" />
        </mxCell>
        <mxCell id="5-WwUPLBj0hoFkO52xAp-14" value="Home page" style="text;html=1;strokeColor=#ae4132;fillColor=#fad9d5;align=center;verticalAlign=middle;whiteSpace=wrap;rounded=0;fontSize=19;" parent="1" vertex="1">
          <mxGeometry x="330" y="50" width="170" height="30" as="geometry" />
        </mxCell>
        <mxCell id="5-WwUPLBj0hoFkO52xAp-18" value="&lt;div&gt;State: &lt;br&gt;&lt;/div&gt;&lt;div&gt;inside: room/office&lt;/div&gt;&lt;div&gt;outside:&lt;br&gt;&lt;/div&gt;" style="text;html=1;strokeColor=#ae4132;fillColor=#fad9d5;align=center;verticalAlign=middle;whiteSpace=wrap;rounded=0;fontSize=19;" parent="1" vertex="1">
          <mxGeometry x="240" y="540" width="350" height="90" as="geometry" />
        </mxCell>
        <mxCell id="5-WwUPLBj0hoFkO52xAp-19" value="&lt;div&gt;Footer: social media, podcast,&lt;/div&gt;&lt;div&gt;contact us&lt;br&gt;&lt;/div&gt;" style="rounded=0;whiteSpace=wrap;html=1;fontSize=19;" parent="1" vertex="1">
          <mxGeometry x="260" y="371" width="290" height="60" as="geometry" />
        </mxCell>
        <mxCell id="5-WwUPLBj0hoFkO52xAp-20" value="Image + sensor&#39;s links" style="rounded=0;whiteSpace=wrap;html=1;fontSize=19;" parent="1" vertex="1">
          <mxGeometry x="130" y="650" width="270" height="40" as="geometry" />
        </mxCell>
        <mxCell id="5-WwUPLBj0hoFkO52xAp-21" value="&lt;div&gt;data:&lt;/div&gt;&lt;div&gt;charts&lt;br&gt;&lt;/div&gt;" style="rounded=0;whiteSpace=wrap;html=1;fontSize=19;" parent="1" vertex="1">
          <mxGeometry x="500" y="650" width="280" height="90" as="geometry" />
        </mxCell>
        <mxCell id="5-WwUPLBj0hoFkO52xAp-26" value="" style="group" parent="1" vertex="1" connectable="0">
          <mxGeometry x="40" y="106.34" width="730" height="163.66" as="geometry" />
        </mxCell>
        <mxCell id="5-WwUPLBj0hoFkO52xAp-22" value="" style="endArrow=none;dashed=1;html=1;rounded=0;fontSize=19;" parent="5-WwUPLBj0hoFkO52xAp-26" edge="1">
          <mxGeometry width="50" height="50" relative="1" as="geometry">
            <mxPoint y="163.66" as="sourcePoint" />
            <mxPoint x="730" y="163.66" as="targetPoint" />
          </mxGeometry>
        </mxCell>
        <mxCell id="5-WwUPLBj0hoFkO52xAp-24" value="" style="endArrow=none;dashed=1;html=1;rounded=0;fontSize=19;" parent="5-WwUPLBj0hoFkO52xAp-26" edge="1">
          <mxGeometry width="50" height="50" relative="1" as="geometry">
            <mxPoint y="163.66" as="sourcePoint" />
            <mxPoint x="730" as="targetPoint" />
            <Array as="points">
              <mxPoint />
            </Array>
          </mxGeometry>
        </mxCell>
        <mxCell id="5-WwUPLBj0hoFkO52xAp-25" value="" style="endArrow=none;dashed=1;html=1;rounded=0;fontSize=19;" parent="5-WwUPLBj0hoFkO52xAp-26" edge="1">
          <mxGeometry width="50" height="50" relative="1" as="geometry">
            <mxPoint x="730" y="163.66" as="sourcePoint" />
            <mxPoint x="730" as="targetPoint" />
          </mxGeometry>
        </mxCell>
        <mxCell id="5-WwUPLBj0hoFkO52xAp-31" value="" style="group" parent="1" vertex="1" connectable="0">
          <mxGeometry x="20" y="20" width="780" height="490" as="geometry" />
        </mxCell>
        <mxCell id="5-WwUPLBj0hoFkO52xAp-12" value="" style="endArrow=none;dashed=1;html=1;rounded=0;fontSize=19;" parent="5-WwUPLBj0hoFkO52xAp-31" edge="1">
          <mxGeometry width="50" height="50" relative="1" as="geometry">
            <mxPoint x="780" y="370.2222222222222" as="sourcePoint" />
            <mxPoint y="370.2222222222222" as="targetPoint" />
            <Array as="points">
              <mxPoint x="390" y="489.99999999999994" />
            </Array>
          </mxGeometry>
        </mxCell>
        <mxCell id="5-WwUPLBj0hoFkO52xAp-13" value="" style="endArrow=none;dashed=1;html=1;rounded=0;fontSize=19;" parent="5-WwUPLBj0hoFkO52xAp-31" edge="1">
          <mxGeometry width="50" height="50" relative="1" as="geometry">
            <mxPoint x="780" y="370.2222222222222" as="sourcePoint" />
            <mxPoint x="780" as="targetPoint" />
          </mxGeometry>
        </mxCell>
        <mxCell id="5-WwUPLBj0hoFkO52xAp-15" value="" style="endArrow=none;dashed=1;html=1;rounded=0;fontSize=19;" parent="5-WwUPLBj0hoFkO52xAp-31" edge="1">
          <mxGeometry width="50" height="50" relative="1" as="geometry">
            <mxPoint y="370.2222222222222" as="sourcePoint" />
            <mxPoint as="targetPoint" />
          </mxGeometry>
        </mxCell>
        <mxCell id="5-WwUPLBj0hoFkO52xAp-16" value="" style="endArrow=none;dashed=1;html=1;rounded=0;fontSize=19;" parent="5-WwUPLBj0hoFkO52xAp-31" edge="1">
          <mxGeometry width="50" height="50" relative="1" as="geometry">
            <mxPoint x="30" y="3.2666666666666666" as="sourcePoint" />
            <mxPoint x="780" y="3.2666666666666666" as="targetPoint" />
            <Array as="points">
              <mxPoint y="3.2666666666666666" />
              <mxPoint x="30" y="3.2666666666666666" />
            </Array>
          </mxGeometry>
        </mxCell>
        <mxCell id="5-WwUPLBj0hoFkO52xAp-32" value="Navigation" style="text;html=1;align=center;verticalAlign=middle;whiteSpace=wrap;rounded=0;fontSize=19;fontStyle=3;fontColor=#3399FF;" parent="5-WwUPLBj0hoFkO52xAp-31" vertex="1">
          <mxGeometry x="360" y="90" width="60" height="30" as="geometry" />
        </mxCell>
        <mxCell id="qWBdLTRW1uxHAdSCUCcN-2" value="&lt;div align=&quot;left&quot;&gt;DATA:&lt;font color=&quot;#000000&quot;&gt;&lt;br&gt;&lt;/font&gt;&lt;/div&gt;&lt;div align=&quot;left&quot;&gt;&lt;font color=&quot;#000000&quot;&gt;Temperature outside&amp;nbsp;&amp;nbsp; &lt;br&gt;&lt;/font&gt;&lt;/div&gt;&lt;div align=&quot;left&quot;&gt;&lt;div&gt;&lt;br&gt;&lt;/div&gt;&lt;div&gt;&lt;font color=&quot;#000000&quot;&gt;Temperature heating&lt;br&gt;&lt;/font&gt;&lt;/div&gt;&lt;div&gt;&lt;font color=&quot;#000000&quot;&gt;&lt;br&gt;&lt;/font&gt;&lt;/div&gt;&lt;div&gt;&lt;div&gt;&lt;font color=&quot;#000000&quot;&gt;Temperature inside&lt;/font&gt;&lt;/div&gt;&lt;/div&gt;&lt;/div&gt;&lt;div align=&quot;left&quot;&gt;&lt;font color=&quot;#000000&quot;&gt;Humidity&lt;/font&gt;&lt;br&gt;&lt;/div&gt;&lt;div align=&quot;left&quot;&gt;&lt;font color=&quot;#000000&quot;&gt;CO2&lt;/font&gt;&lt;/div&gt;&lt;div align=&quot;left&quot;&gt;&lt;font color=&quot;#000000&quot;&gt;&lt;br&gt;&lt;/font&gt;&lt;/div&gt;&lt;div align=&quot;left&quot;&gt;&lt;font color=&quot;#000000&quot;&gt;Water &lt;br&gt;&lt;/font&gt;&lt;/div&gt;&lt;div align=&quot;left&quot;&gt;&lt;font color=&quot;#000000&quot;&gt;&lt;br&gt;&lt;/font&gt;&lt;/div&gt;&lt;div align=&quot;left&quot;&gt;&lt;font color=&quot;#000000&quot;&gt;Electricity&lt;/font&gt;&lt;br&gt;&lt;/div&gt;&lt;div align=&quot;left&quot;&gt;&lt;font color=&quot;#000000&quot;&gt;Ground floor moisture&lt;/font&gt;&lt;br&gt;&lt;/div&gt;&lt;div align=&quot;left&quot;&gt;&lt;font color=&quot;#000000&quot;&gt;Windows(open/close)&lt;/font&gt;&lt;/div&gt;&lt;div align=&quot;left&quot;&gt;&lt;font color=&quot;#000000&quot;&gt;Doors (open/close)&lt;/font&gt;&lt;br&gt;&lt;/div&gt;&lt;div align=&quot;left&quot;&gt;&lt;font color=&quot;#000000&quot;&gt;Is anybody home?:)&lt;/font&gt;&lt;/div&gt;&lt;div&gt;&lt;font color=&quot;#000000&quot;&gt;&lt;br&gt;&lt;/font&gt;&lt;/div&gt;" style="rounded=0;whiteSpace=wrap;html=1;fontSize=19;fontColor=#3399FF;align=center;" vertex="1" parent="1">
          <mxGeometry x="130" y="750" width="480" height="470" as="geometry" />
        </mxCell>
        <mxCell id="qWBdLTRW1uxHAdSCUCcN-3" value="" style="endArrow=classic;startArrow=classic;html=1;rounded=0;fontSize=19;fontColor=#000000;" edge="1" parent="1">
          <mxGeometry width="50" height="50" relative="1" as="geometry">
            <mxPoint x="410" y="620" as="sourcePoint" />
            <mxPoint x="460" y="570" as="targetPoint" />
          </mxGeometry>
        </mxCell>
      </root>
    </mxGraphModel>
  </diagram>
</mxfile>
